<mxfile host="app.diagrams.net" modified="2024-05-19T06:50:40.900Z" agent="Mozilla/5.0 (Windows NT 10.0; Win64; x64) AppleWebKit/537.36 (KHTML, like Gecko) Chrome/125.0.0.0 Safari/537.36 Edg/125.0.0.0" etag="V9xEqUNDoYcgNKIYOjyH" version="24.4.4" type="onedrive">
  <diagram name="Page-1" id="ZmU9KuF6e3FKLL1m9PnL">
    <mxGraphModel grid="1" page="1" gridSize="10" guides="1" tooltips="1" connect="1" arrows="1" fold="1" pageScale="1" pageWidth="850" pageHeight="1100" math="0" shadow="0">
      <root>
        <mxCell id="0" />
        <mxCell id="1" parent="0" />
        <mxCell id="KFDiG2fYiUBft_Zf2GF9-1" value="Basic-Banking-prototype" style="rounded=0;whiteSpace=wrap;html=1;" vertex="1" parent="1">
          <mxGeometry x="350" y="460" width="180" height="130" as="geometry" />
        </mxCell>
        <mxCell id="KFDiG2fYiUBft_Zf2GF9-9" style="edgeStyle=orthogonalEdgeStyle;rounded=0;orthogonalLoop=1;jettySize=auto;html=1;entryX=0.5;entryY=0;entryDx=0;entryDy=0;" edge="1" parent="1" source="KFDiG2fYiUBft_Zf2GF9-2" target="KFDiG2fYiUBft_Zf2GF9-5">
          <mxGeometry relative="1" as="geometry" />
        </mxCell>
        <mxCell id="KFDiG2fYiUBft_Zf2GF9-2" value="Staff" style="rounded=0;whiteSpace=wrap;html=1;" vertex="1" parent="1">
          <mxGeometry x="680" y="240" width="120" height="60" as="geometry" />
        </mxCell>
        <mxCell id="KFDiG2fYiUBft_Zf2GF9-7" style="edgeStyle=orthogonalEdgeStyle;rounded=0;orthogonalLoop=1;jettySize=auto;html=1;entryX=0.5;entryY=0;entryDx=0;entryDy=0;" edge="1" parent="1" source="KFDiG2fYiUBft_Zf2GF9-3" target="KFDiG2fYiUBft_Zf2GF9-4">
          <mxGeometry relative="1" as="geometry" />
        </mxCell>
        <mxCell id="KFDiG2fYiUBft_Zf2GF9-3" value="Customer" style="rounded=0;whiteSpace=wrap;html=1;" vertex="1" parent="1">
          <mxGeometry x="80" y="240" width="120" height="60" as="geometry" />
        </mxCell>
        <mxCell id="KFDiG2fYiUBft_Zf2GF9-8" style="edgeStyle=orthogonalEdgeStyle;rounded=0;orthogonalLoop=1;jettySize=auto;html=1;entryX=0;entryY=0.5;entryDx=0;entryDy=0;" edge="1" parent="1" source="KFDiG2fYiUBft_Zf2GF9-4" target="KFDiG2fYiUBft_Zf2GF9-1">
          <mxGeometry relative="1" as="geometry" />
        </mxCell>
        <mxCell id="KFDiG2fYiUBft_Zf2GF9-4" value="Create&lt;div&gt;Account&lt;/div&gt;" style="ellipse;whiteSpace=wrap;html=1;aspect=fixed;" vertex="1" parent="1">
          <mxGeometry x="100" y="485" width="80" height="80" as="geometry" />
        </mxCell>
        <mxCell id="KFDiG2fYiUBft_Zf2GF9-12" style="edgeStyle=orthogonalEdgeStyle;rounded=0;orthogonalLoop=1;jettySize=auto;html=1;entryX=1;entryY=0.5;entryDx=0;entryDy=0;" edge="1" parent="1" source="KFDiG2fYiUBft_Zf2GF9-5" target="KFDiG2fYiUBft_Zf2GF9-1">
          <mxGeometry relative="1" as="geometry" />
        </mxCell>
        <mxCell id="KFDiG2fYiUBft_Zf2GF9-5" value="Approve" style="ellipse;whiteSpace=wrap;html=1;aspect=fixed;" vertex="1" parent="1">
          <mxGeometry x="700" y="485" width="80" height="80" as="geometry" />
        </mxCell>
        <mxCell id="KFDiG2fYiUBft_Zf2GF9-13" value="Customer Details" style="text;html=1;align=center;verticalAlign=middle;resizable=0;points=[];autosize=1;strokeColor=none;fillColor=none;rotation=-90;" vertex="1" parent="1">
          <mxGeometry x="50" y="388" width="120" height="30" as="geometry" />
        </mxCell>
        <mxCell id="KFDiG2fYiUBft_Zf2GF9-17" value="Customer Details" style="text;html=1;align=center;verticalAlign=middle;resizable=0;points=[];autosize=1;strokeColor=none;fillColor=none;rotation=0;" vertex="1" parent="1">
          <mxGeometry x="200" y="535" width="120" height="30" as="geometry" />
        </mxCell>
        <mxCell id="KFDiG2fYiUBft_Zf2GF9-18" value="Customer Details" style="text;html=1;align=center;verticalAlign=middle;resizable=0;points=[];autosize=1;strokeColor=none;fillColor=none;rotation=0;" vertex="1" parent="1">
          <mxGeometry x="560" y="540" width="120" height="30" as="geometry" />
        </mxCell>
        <mxCell id="KFDiG2fYiUBft_Zf2GF9-19" value="Customer Details" style="text;html=1;align=center;verticalAlign=middle;resizable=0;points=[];autosize=1;strokeColor=none;fillColor=none;rotation=-90;" vertex="1" parent="1">
          <mxGeometry x="700" y="388" width="120" height="30" as="geometry" />
        </mxCell>
      </root>
    </mxGraphModel>
  </diagram>
</mxfile>
